<svg xmlns="http://www.w3.org/2000/svg" viewBox="0 0 512 512" width="100%" height="100%">
  <path d="M 89 295 L 89 317 L 111 317 L 111 295 Z  M 53 269 L 53 291 L 75 291 L 75 269 Z  M 136 251 L 136 264 L 148 264 L 148 251 Z  M 95 250 L 96 273 L 117 272 L 117 250 L 109 251 Z  M 33 246 L 33 258 L 47 258 L 46 245 Z  M 376 242 L 374 246 L 371 261 L 369 263 L 369 264 L 368 265 L 364 267 L 361 268 L 353 269 L 349 270 L 347 272 L 362 275 L 367 277 L 370 280 L 371 282 L 374 297 L 375 298 L 376 300 L 377 298 L 378 294 L 379 287 L 380 283 L 382 279 L 384 277 L 386 276 L 389 275 L 400 273 L 404 271 L 402 270 L 398 269 L 391 268 L 387 267 L 385 266 L 381 262 L 380 260 L 377 249 L 377 246 Z  M 68 220 L 68 242 L 72 243 L 90 242 L 90 220 Z  M 48 195 L 49 208 L 61 208 L 61 195 L 53 194 Z  M 228 155 L 228 158 L 225 170 L 220 175 L 213 177 L 209 177 L 208 178 L 206 178 L 206 180 L 209 180 L 218 182 L 222 184 L 224 186 L 225 188 L 226 191 L 227 199 L 229 203 L 230 201 L 231 197 L 231 194 L 232 190 L 234 186 L 237 183 L 244 181 L 248 181 L 249 180 L 252 180 L 252 178 L 249 178 L 241 176 L 238 175 L 236 173 L 235 173 L 234 172 L 233 170 L 232 167 L 231 160 Z  M 403 104 L 401 105 L 375 157 L 387 170 L 400 189 L 409 207 L 416 227 L 422 260 L 422 284 L 420 300 L 415 321 L 409 337 L 400 355 L 390 370 L 379 383 L 358 402 L 338 415 L 325 421 L 325 454 L 331 481 L 349 475 L 387 453 L 408 436 L 430 413 L 448 388 L 461 364 L 471 338 L 478 309 L 481 280 L 480 251 L 475 221 L 467 195 L 457 172 L 440 144 L 425 125 Z  M 323 110 L 306 104 L 290 100 L 277 98 L 255 97 L 240 98 L 221 101 L 206 105 L 190 111 L 174 119 L 154 132 L 142 142 L 130 154 L 117 170 L 108 184 L 98 204 L 99 207 L 106 210 L 110 200 L 117 187 L 128 171 L 144 153 L 166 135 L 177 128 L 195 119 L 212 113 L 224 110 L 244 107 L 273 107 L 281 108 L 304 113 L 316 118 L 321 117 L 323 113 Z " fill="#82868B" fill-rule="evenodd" />
  <path d="M 56 363 L 74 394 L 80 395 L 129 371 L 169 341 L 170 343 L 134 381 L 90 411 L 92 417 L 108 434 L 124 447 L 163 422 L 195 394 L 196 396 L 176 422 L 140 457 L 167 474 L 206 487 L 226 465 L 250 432 L 246 447 L 225 491 L 260 494 L 267 444 L 281 402 L 279 428 L 281 493 L 317 486 L 311 452 L 311 425 L 315 400 L 325 372 L 324 369 L 169 286 L 166 286 L 148 312 L 124 333 L 94 350 Z  M 178 263 L 173 273 L 173 275 L 176 277 L 280 332 L 317 353 L 332 360 L 334 357 L 337 347 L 332 345 L 330 343 L 181 263 Z  M 186 252 L 185 254 L 227 277 L 240 283 L 331 333 L 342 338 L 342 325 L 341 318 L 338 308 L 336 304 L 330 299 L 325 297 L 320 293 L 306 286 L 303 283 L 303 281 L 313 257 L 300 251 L 298 249 L 267 233 L 265 233 L 255 252 L 252 255 L 249 255 L 228 244 L 218 240 L 212 240 L 205 242 L 194 247 L 187 252 Z  M 357 219 L 354 222 L 354 227 L 355 229 L 356 230 L 358 231 L 362 231 L 364 230 L 366 228 L 366 222 L 365 220 L 363 219 Z  M 186 155 L 184 157 L 183 159 L 183 162 L 184 164 L 186 166 L 192 166 L 194 164 L 195 162 L 195 159 L 194 157 L 192 155 Z  M 345 68 L 318 58 L 302 54 L 271 50 L 245 50 L 226 52 L 198 58 L 180 64 L 150 78 L 131 90 L 113 104 L 102 114 L 85 133 L 67 160 L 68 163 L 72 165 L 76 164 L 87 146 L 100 130 L 116 114 L 128 104 L 153 87 L 185 72 L 212 64 L 248 59 L 268 59 L 294 62 L 319 68 L 339 76 L 342 75 L 345 70 Z  M 403 16 L 396 16 L 389 19 L 384 24 L 333 121 L 322 144 L 290 203 L 281 222 L 280 226 L 304 238 L 306 240 L 314 242 L 418 42 L 419 33 L 417 26 L 413 21 Z " fill="#8FAEB0" fill-rule="evenodd" />
</svg>